# xmcd CD database file
#
# Track frame offsets:
#	150
#	37722
#	70719
#	108437
#	138490
#	167819
#	193681
#	220929
#	244110
#
# Disc length: 3782 seconds
#
# Revision: 0
# Processed by: cddbd v1.5.2PL0 Copyright (c) Steve Scherf et al.
# Submitted via: CDex 1.51
#
DISCID=7a0ec409
DTITLE=TONU NAISSOO TRIO - FOR NOW AND FOREVER
DYEAR=2008
DGENRE=Jazz
TTITLE0=Frank Mills
TTITLE1=Rhythm-A-Ning
TTITLE2=Along Came Betty
TTITLE3=Yourself
TTITLE4=Turning Point
TTITLE5=UnPoco Loco
TTITLE6=Little Waltz
TTITLE7=The Sweetest Sounds
TTITLE8=I LOVE You, Porgy
EXTD=YEAR: 2008
EXTT0=
EXTT1=
EXTT2=
EXTT3=
EXTT4=
EXTT5=
EXTT6=
EXTT7=
EXTT8=
PLAYORDER=
